<svg xmlns="http://www.w3.org/2000/svg" viewBox="0 0 45.7 44.92"><defs><style>.cls-1{fill:#0044a7;}.cls-2,.cls-5{fill:#fff;}.cls-3,.cls-4{fill:none;}.cls-3,.cls-5{stroke:#0044a7;}.cls-3,.cls-4,.cls-5{stroke-miterlimit:10;}.cls-4{stroke:#fff;}.cls-5{stroke-width:0.5px;}</style></defs><g id="Слой_2" data-name="Слой 2"><g id="Слой_1-2" data-name="Слой 1"><path class="cls-1" d="M37.64,21.79l-.07,8.73A1.69,1.69,0,0,1,36.71,32l-13.07,7.4a1.68,1.68,0,0,1-1.69,0L9,31.76a1.72,1.72,0,0,1-.84-1.48V30a1.69,1.69,0,0,0-2.53-1.48L2.93,30.08a1.7,1.7,0,0,0-.64,2.31l.29.51c6,10.58,19.2,15.09,30.14,9.79A22.92,22.92,0,0,0,45.55,19.55a2.85,2.85,0,0,0-4.23-2.2l-1.6.91A4.08,4.08,0,0,0,37.64,21.79Z"/><path class="cls-2" d="M3,27.58A2.49,2.49,0,0,1,.51,25.34,22.59,22.59,0,0,1,13.13,2.58,21.64,21.64,0,0,1,22.68.38a23.2,23.2,0,0,1,20.1,11.83l.29.52a1.31,1.31,0,0,1-.5,1.79l-2.71,1.54a1.31,1.31,0,0,1-1.59-.23,1.26,1.26,0,0,1-.37-.93v-.26a2.06,2.06,0,0,0-1-1.79l-13-7.62A2.14,2.14,0,0,0,22.88,5a2,2,0,0,0-1,.27L8.79,12.63a2.07,2.07,0,0,0-1,1.78l-.07,8.71a3.87,3.87,0,0,1-2.14,3.37l-1.36.77a2.42,2.42,0,0,1-1.2.32Z"/><path class="cls-1" d="M22.68,0V.76A22.82,22.82,0,0,1,42.45,12.39l.29.52a.93.93,0,0,1-.35,1.28l-2.71,1.54a.92.92,0,0,1-1.14-.16.93.93,0,0,1-.27-.67v-.25a2.45,2.45,0,0,0-1.2-2.13L24.12,4.91a2.46,2.46,0,0,0-1.24-.34,2.4,2.4,0,0,0-1.2.32L8.61,12.3a2.42,2.42,0,0,0-1.24,2.1L7.3,23.12a3.5,3.5,0,0,1-1.95,3L4,26.93a2,2,0,0,1-1,.27A2.11,2.11,0,0,1,.88,25.3,22.25,22.25,0,0,1,13.29,2.91,21.35,21.35,0,0,1,22.68.76V0m0,0A22.16,22.16,0,0,0,13,2.24,22.91,22.91,0,0,0,.14,25.39,2.85,2.85,0,0,0,3,28a2.74,2.74,0,0,0,1.39-.37l1.36-.77a4.25,4.25,0,0,0,2.33-3.69l.07-8.71A1.69,1.69,0,0,1,9,13L22.05,5.54a1.61,1.61,0,0,1,.83-.22,1.76,1.76,0,0,1,.86.23l13,7.62a1.69,1.69,0,0,1,.83,1.47v.26a1.7,1.7,0,0,0,1.7,1.71,1.63,1.63,0,0,0,.83-.23l2.71-1.53a1.7,1.7,0,0,0,.64-2.31L43.1,12A23.6,23.6,0,0,0,22.68,0Z"/><path class="cls-3" d="M33.64,10.41A21.46,21.46,0,0,0,25,1a3.69,3.69,0,0,0-3.83.05c-3.54,2.2-6.21,4.8-7.28,8.09a.77.77,0,0,1-1.08.44A11.24,11.24,0,0,0,7,8.25,2.3,2.3,0,0,0,4.86,11a9.34,9.34,0,0,0,2.41,4.85.7.7,0,0,1,.11.85,10.57,10.57,0,0,1-6,4.2.86.86,0,0,0-.27,1.53,15.38,15.38,0,0,0,5.47,2.43.42.42,0,0,0,.49-.48c-.5-2.51-2.43-5.17-4.83-7.88a1.37,1.37,0,0,1,.46-2.15c4.39-2.09,7.4-6,9.72-10.76a2.05,2.05,0,0,1,2.55-1,17.8,17.8,0,0,1,4.5,2.28,2.13,2.13,0,0,0,2.73,0,19.8,19.8,0,0,0,2.77-3,2.07,2.07,0,0,1,3-.43,66.14,66.14,0,0,0,12.7,8,.19.19,0,0,1-.07.37,15.26,15.26,0,0,0-4.83,1.36A1.53,1.53,0,0,1,33.64,10.41Z"/><path class="cls-4" d="M11.72,34.25a21.63,21.63,0,0,0,9.79,10,1.71,1.71,0,0,0,1.67,0C27,41.93,30,39.33,31.28,36a1.33,1.33,0,0,1,1.82-.75,11.54,11.54,0,0,0,6.78.9,1,1,0,0,0,.83-1,10.55,10.55,0,0,0-2.24-6,1.55,1.55,0,0,1-.07-1.94,11.29,11.29,0,0,1,6.51-3.85.37.37,0,0,0,.15-.65,16.74,16.74,0,0,0-5.63-2.85.82.82,0,0,0-1,1c.77,2.58,2.93,5.29,5.46,8a.5.5,0,0,1-.19.81C38.36,31.82,35,36.42,32.41,42.13a.6.6,0,0,1-.75.32,26,26,0,0,1-4.83-2.08,3.94,3.94,0,0,0-4.87.56,19,19,0,0,0-2.23,2.8.92.92,0,0,1-1.36.22A66.86,66.86,0,0,0,4.71,35.23a.19.19,0,0,1,.06-.36,15.27,15.27,0,0,0,4.82-1.36A1.58,1.58,0,0,1,11.72,34.25Z"/><path class="cls-5" d="M31.1,14.35,26.24,11.4a6.18,6.18,0,0,0-6.18-.12l-5,2.74a6.18,6.18,0,0,0-3.2,5.28L11.76,25a6.2,6.2,0,0,0,3,5.42l4.86,2.94a6.2,6.2,0,0,0,6.18.13l5-2.74A6.15,6.15,0,0,0,34,25.45l.12-5.69A6.16,6.16,0,0,0,31.1,14.35ZM24,30.52a2.57,2.57,0,0,1-2.57-.06l-5-3.05a2.55,2.55,0,0,1-1.24-2.25l.12-5.89a2.58,2.58,0,0,1,1.33-2.2l5.16-2.84a2.61,2.61,0,0,1,2.58,0l5,3a2.58,2.58,0,0,1,1.24,2.26l-.12,5.89a2.58,2.58,0,0,1-1.33,2.2Z"/><path class="cls-1" d="M14.94,25l.37-5.8A2.58,2.58,0,0,1,16.64,17L21.8,14.2a2.59,2.59,0,0,1,2.57.05l5,3.05a2.58,2.58,0,0,1,1.24,2.26l-.12,5.88a3.36,3.36,0,0,1-1.34,2.49c1.56-.85,2.8,1.77,1.64,2.54A6.11,6.11,0,0,0,34,25.41l.12-5.68a6.18,6.18,0,0,0-3-5.41l-4.86-3a6.2,6.2,0,0,0-6.18-.13l-5,2.74a6.17,6.17,0,0,0-3.2,5.29L12,25C12.05,23.61,15,23.65,14.94,25Z"/></g></g></svg>